<svg xmlns="http://www.w3.org/2000/svg" viewBox="0 0 128 128">
  <defs>
    <linearGradient id="g" x1="20" y1="12" x2="112" y2="120" gradientUnits="userSpaceOnUse">
      <stop stop-color="#ff8abd"/>
      <stop offset="0.55" stop-color="#ff5fa2"/>
      <stop offset="1" stop-color="#ffc36a"/>
    </linearGradient>
  </defs>
  <rect width="128" height="128" rx="32" fill="url(#g)"/>
  <path d="M64 100s-4.2-3.2-9.9-7.9C35.4 76.6 24 66.4 24 51.8 24 39.7 33.3 31 44.6 31c7.2 0 14.3 4 19.4 10.3C69.1 35 76.2 31 83.4 31 94.7 31 104 39.7 104 51.8c0 14.6-11.4 24.8-30.1 40.3C68.2 96.8 64 100 64 100Z" fill="#fff"/>
  <path d="M42 51c8 0 14 7 22 7s14-7 22-7" fill="none" stroke="#ff5fa2" stroke-width="6" stroke-linecap="round"/>
</svg>