<svg xmlns="http://www.w3.org/2000/svg" width="1200" height="630" viewBox="0 0 1200 630">
  <defs>
    <linearGradient id="bg" x1="120" y1="60" x2="1080" y2="590" gradientUnits="userSpaceOnUse">
      <stop stop-color="#fff0f6"/>
      <stop offset="0.48" stop-color="#f6e7ff"/>
      <stop offset="1" stop-color="#ffe8d6"/>
    </linearGradient>
    <linearGradient id="heart" x1="430" y1="125" x2="770" y2="480" gradientUnits="userSpaceOnUse">
      <stop stop-color="#ff8abd"/>
      <stop offset="0.6" stop-color="#ff5fa2"/>
      <stop offset="1" stop-color="#ffc36a"/>
    </linearGradient>
  </defs>
  <rect width="1200" height="630" fill="url(#bg)"/>
  <circle cx="210" cy="120" r="120" fill="#fff" opacity=".55"/>
  <circle cx="1010" cy="150" r="160" fill="#ffd0e4" opacity=".5"/>
  <rect x="120" y="95" width="960" height="440" rx="48" fill="#fff" opacity=".68"/>
  <path d="M600 365s-17-13-39-31c-73-61-118-101-118-158 0-47 36-81 80-81 28 0 56 16 77 40 21-24 49-40 77-40 44 0 80 34 80 81 0 57-45 97-118 158-22 18-39 31-39 31Z" fill="url(#heart)"/>
  <text x="600" y="430" text-anchor="middle" font-family="Inter, Arial, sans-serif" font-size="82" font-weight="900" fill="#44233a">LoveDrop</text>
  <text x="600" y="482" text-anchor="middle" font-family="Inter, Arial, sans-serif" font-size="32" font-weight="600" fill="#8b6479">лёгкие JPG-фоточки для web</text>
</svg>